<svg xmlns="http://www.w3.org/2000/svg" viewBox="0 0 1024 1024" width="128" height="128">
  <path d="M731.429 804.571H292.57a73.143 73.143 0 0 1-73.142-73.142V621.714h73.142V731.43H731.43V621.714h73.142V731.43a73.143 73.143 0 0 1-73.142 73.142zM0 475.43h1024v73.142H0zm804.571-73.143H731.43V292.57H292.57v109.715H219.43V292.57a73.143 73.143 0 0 1 73.142-73.142H731.43a73.143 73.143 0 0 1 73.142 73.142v109.715zM1024 292.57h-73.143V73.143H731.43V0H1024zm-950.857 0H0V0h292.571v73.143H73.143zM292.57 1024H0V731.429h73.143v219.428H292.57zm731.429 0H731.429v-73.143h219.428V731.43H1024z"/>
</svg>
