<svg xmlns="http://www.w3.org/2000/svg" viewBox="0 0 1024 1024" version="1.1" width="512" height="512">
  <path d="M896.256 383.488H832V191.744h-191.68V128h224.256c15.552 0 28.48 11.2 31.168 25.984l0.512 5.696v223.808z m-768.192 0.256h64.32V192H384v-63.744H159.744a31.68 31.68 0 0 0-31.168 25.984l-0.512 5.696v223.808zM896.256 640H832v191.744l-191.68-0.064v63.808h224.256a31.68 31.68 0 0 0 31.168-25.984l0.512-5.76V640z m-768.192 0.256h64.32v191.68H384v63.808H159.744a31.68 31.68 0 0 1-31.168-25.984l-0.512-5.76v-223.744z m639.68-159.808v64H256.256v-64h511.488z"></path>
</svg>
