<svg xmlns="http://www.w3.org/2000/svg" viewBox="0 0 1024 1024" width="128" height="128">
  <path d="M85.312 85.312V384H384V85.312H85.312zM0 0h469.248v469.248H0V0zm170.624 170.624h128v128h-128v-128zM0 554.624h469.248v469.248H0V554.624zm85.312 85.312V938.56H384V639.936H85.312zm85.312 85.312h128v128h-128v-128zM554.624 0h469.248v469.248H554.624V0zm85.312 85.312V384H938.56V85.312H639.936zm383.936 682.56h.128v85.376H725.248V639.936h-85.312v383.936h-85.312V554.624H810.56v213.248h128V554.624h85.312v213.248zM725.248 170.624h128v128h-128v-128zm298.624 853.248H938.56V938.56h85.312v85.312zm-213.312 0h-85.312V938.56h85.312v85.312z"/>
</svg>
