<svg xmlns="http://www.w3.org/2000/svg" viewBox="0 0 1053 1024" width="131.625" height="128">
  <path d="M526.482 824.554h-.146c-10.825 0-21.124-4.769-28.175-12.99-10.766-12.522-22.528-25.951-34.933-40.112-110.592-126.186-259.803-290.67-259.803-445.44 0-179.58 145.905-325.66 325.31-325.66 179.346 0 325.281 146.08 325.281 325.66 0 157.872-157.11 324.725-270.19 452.608-10.24 11.615-20.07 22.704-29.198 33.178a37.361 37.361 0 0 1-28.146 12.756zm2.253-749.392c-138.181 0-250.587 112.523-250.587 250.85 0 171.008 177.444 317.44 250.85 408.313 72.792-94.998 250.237-236.515 250.237-408.313.029-138.327-112.348-250.85-250.5-250.85z"/>
  <path d="M528.735 449.565a142.19 142.19 0 0 1-141.985-142.16 142.219 142.219 0 0 1 141.985-142.131 142.19 142.19 0 0 1 141.985 142.13 142.19 142.19 0 0 1-141.985 142.161zm0-209.48a67.35 67.35 0 0 0 0 134.64 67.35 67.35 0 0 0 0-134.64zm486.605 783.213H37.917a37.45 37.45 0 0 1-33.616-53.716l144.238-298.803c6.26-12.874 19.31-21.066 33.645-21.066h83.763a37.39 37.39 0 0 1 0 74.81h-60.416L97.573 948.547H958.17l-97.66-224.051h-72.645a37.39 37.39 0 0 1 0-74.81h97.046c14.833 0 28.262 8.776 34.23 22.352l130.429 298.832a37.39 37.39 0 0 1-34.202 52.487z"/>
</svg>
