<svg xmlns="http://www.w3.org/2000/svg" viewBox="0 0 1024 1024" width="512" height="512">
  <path d="M341.331 512c0 94.26 76.416 170.669 170.669 170.669 94.26 0 170.669-76.416 170.669-170.669 0-94.26-76.416-170.669-170.669-170.669-94.26 0-170.669 76.416-170.669 170.669z"/>
  <path d="M972.8 460.8h-54.784C894.509 275.443 748.556 129.491 563.2 105.984V51.2a51.2 51.2 0 1 0-102.4 0v54.784C275.443 129.491 129.491 275.444 105.984 460.8H51.2a51.2 51.2 0 1 0 0 102.4h54.784c23.507 185.357 169.46 331.309 354.816 354.816V972.8a51.2 51.2 0 1 0 102.4 0v-54.784c185.357-23.507 331.309-169.46 354.816-354.816H972.8a51.2 51.2 0 1 0 0-102.4zM512 819.2c-169.664 0-307.2-137.536-307.2-307.2S342.336 204.8 512 204.8 819.2 342.336 819.2 512 681.664 819.2 512 819.2z"/>
</svg>
