<svg xmlns="http://www.w3.org/2000/svg" viewBox="0 0 1024 1024" version="1.1" width="512" height="512">
  <path d="M341.3312 512c0 94.2592 76.416 170.6688 170.6688 170.6688 94.2592 0 170.6688-76.416 170.6688-170.6688 0-94.2592-76.416-170.6688-170.6688-170.6688-94.2592 0-170.6688 76.416-170.6688 170.6688z"></path>
  <path d="M972.8 460.8h-54.784C894.5088 275.4432 748.5568 129.4912 563.2 105.984V51.2a51.2 51.2 0 1 0-102.4 0v54.784C275.4432 129.4912 129.4912 275.4432 105.984 460.8H51.2a51.2 51.2 0 1 0 0 102.4h54.784c23.5072 185.3568 169.4592 331.3088 354.816 354.816V972.8a51.2 51.2 0 1 0 102.4 0v-54.784c185.3568-23.5072 331.3088-169.4592 354.816-354.816H972.8a51.2 51.2 0 1 0 0-102.4z m-460.8 358.4c-169.664 0-307.2-137.536-307.2-307.2s137.536-307.2 307.2-307.2 307.2 137.536 307.2 307.2-137.536 307.2-307.2 307.2z"></path>
</svg>
