<svg xmlns="http://www.w3.org/2000/svg" viewBox="0 0 1024 1024" width="128" height="128">
  <path d="M853.344 341.344C853.344 294.4 814.944 256 768 256s-85.344 38.4-85.344 85.344 38.4 85.344 85.344 85.344 85.344-38.4 85.344-85.344z"/>
  <path d="M0 85.344v853.344h512v-85.344H85.344V742.4l256-256L512 657.056l59.744-59.744-230.4-230.4-256 256V170.656h853.344v256L1024.032 512V85.344z"/>
  <path d="m951.456 755.2 59.744-59.744-200.544-200.544-200.544 200.544 59.744 59.744L768 657.056v196.256h85.344V657.056zM597.344 938.656h85.344V1024h-85.344v-85.344zm170.656 0h85.344V1024H768v-85.344zm170.656 0H1024V1024h-85.344v-85.344z"/>
</svg>
